<mxfile host="app.diagrams.net" agent="Mozilla/5.0 (Windows NT 10.0; Win64; x64) AppleWebKit/537.36 (KHTML, like Gecko) Chrome/129.0.0.0 Safari/537.36" version="24.7.17">
  <diagram name="Página-1" id="G5Zg4o8tyqqohGCtM93v">
    <mxGraphModel dx="712" dy="821" grid="0" gridSize="10" guides="1" tooltips="1" connect="1" arrows="1" fold="1" page="0" pageScale="1" pageWidth="827" pageHeight="1169" math="0" shadow="0">
      <root>
        <mxCell id="0" />
        <mxCell id="1" parent="0" />
        <mxCell id="EAFy6BmTSHPL2V_Lnm4d-1" value="Usuário" style="shape=umlActor;verticalLabelPosition=bottom;verticalAlign=top;html=1;" vertex="1" parent="1">
          <mxGeometry x="40" y="40" width="30" height="60" as="geometry" />
        </mxCell>
        <mxCell id="EAFy6BmTSHPL2V_Lnm4d-2" value="" style="endArrow=none;dashed=1;html=1;rounded=0;" edge="1" parent="1">
          <mxGeometry width="50" height="50" relative="1" as="geometry">
            <mxPoint x="55" y="410" as="sourcePoint" />
            <mxPoint x="54.72000000000003" y="130" as="targetPoint" />
          </mxGeometry>
        </mxCell>
        <mxCell id="EAFy6BmTSHPL2V_Lnm4d-3" value="" style="html=1;points=[[0,0,0,0,5],[0,1,0,0,-5],[1,0,0,0,5],[1,1,0,0,-5]];perimeter=orthogonalPerimeter;outlineConnect=0;targetShapes=umlLifeline;portConstraint=eastwest;newEdgeStyle={&quot;curved&quot;:0,&quot;rounded&quot;:0};" vertex="1" parent="1">
          <mxGeometry x="50" y="150" width="10" height="230" as="geometry" />
        </mxCell>
        <mxCell id="EAFy6BmTSHPL2V_Lnm4d-4" value=":Usuario" style="shape=umlLifeline;perimeter=lifelinePerimeter;whiteSpace=wrap;html=1;container=1;dropTarget=0;collapsible=0;recursiveResize=0;outlineConnect=0;portConstraint=eastwest;newEdgeStyle={&quot;curved&quot;:0,&quot;rounded&quot;:0};" vertex="1" parent="1">
          <mxGeometry x="310" y="69" width="140" height="340" as="geometry" />
        </mxCell>
        <mxCell id="EAFy6BmTSHPL2V_Lnm4d-5" value="" style="html=1;points=[[0,0,0,0,5],[0,1,0,0,-5],[1,0,0,0,5],[1,1,0,0,-5]];perimeter=orthogonalPerimeter;outlineConnect=0;targetShapes=umlLifeline;portConstraint=eastwest;newEdgeStyle={&quot;curved&quot;:0,&quot;rounded&quot;:0};" vertex="1" parent="EAFy6BmTSHPL2V_Lnm4d-4">
          <mxGeometry x="65" y="219" width="10" height="69" as="geometry" />
        </mxCell>
        <mxCell id="EAFy6BmTSHPL2V_Lnm4d-6" value=":APIB3" style="shape=umlLifeline;perimeter=lifelinePerimeter;whiteSpace=wrap;html=1;container=1;dropTarget=0;collapsible=0;recursiveResize=0;outlineConnect=0;portConstraint=eastwest;newEdgeStyle={&quot;curved&quot;:0,&quot;rounded&quot;:0};" vertex="1" parent="1">
          <mxGeometry x="458" y="70" width="130" height="339" as="geometry" />
        </mxCell>
        <mxCell id="EAFy6BmTSHPL2V_Lnm4d-7" value="" style="html=1;points=[[0,0,0,0,5],[0,1,0,0,-5],[1,0,0,0,5],[1,1,0,0,-5]];perimeter=orthogonalPerimeter;outlineConnect=0;targetShapes=umlLifeline;portConstraint=eastwest;newEdgeStyle={&quot;curved&quot;:0,&quot;rounded&quot;:0};" vertex="1" parent="EAFy6BmTSHPL2V_Lnm4d-6">
          <mxGeometry x="60" y="119" width="10" height="100" as="geometry" />
        </mxCell>
        <mxCell id="EAFy6BmTSHPL2V_Lnm4d-8" value="ordem:Ordem" style="shape=umlLifeline;perimeter=lifelinePerimeter;whiteSpace=wrap;html=1;container=1;dropTarget=0;collapsible=0;recursiveResize=0;outlineConnect=0;portConstraint=eastwest;newEdgeStyle={&quot;curved&quot;:0,&quot;rounded&quot;:0};" vertex="1" parent="1">
          <mxGeometry x="134" y="70" width="130" height="340" as="geometry" />
        </mxCell>
        <mxCell id="EAFy6BmTSHPL2V_Lnm4d-9" value="" style="html=1;points=[[0,0,0,0,5],[0,1,0,0,-5],[1,0,0,0,5],[1,1,0,0,-5]];perimeter=orthogonalPerimeter;outlineConnect=0;targetShapes=umlLifeline;portConstraint=eastwest;newEdgeStyle={&quot;curved&quot;:0,&quot;rounded&quot;:0};" vertex="1" parent="EAFy6BmTSHPL2V_Lnm4d-8">
          <mxGeometry x="60" y="99" width="10" height="21" as="geometry" />
        </mxCell>
        <mxCell id="EAFy6BmTSHPL2V_Lnm4d-10" value="API B3" style="shape=umlActor;verticalLabelPosition=bottom;verticalAlign=top;html=1;" vertex="1" parent="1">
          <mxGeometry x="638" y="49" width="30" height="60" as="geometry" />
        </mxCell>
        <mxCell id="EAFy6BmTSHPL2V_Lnm4d-11" value="" style="endArrow=none;dashed=1;html=1;rounded=0;" edge="1" parent="1" source="EAFy6BmTSHPL2V_Lnm4d-13">
          <mxGeometry width="50" height="50" relative="1" as="geometry">
            <mxPoint x="652.99" y="419" as="sourcePoint" />
            <mxPoint x="652.71" y="139" as="targetPoint" />
          </mxGeometry>
        </mxCell>
        <mxCell id="EAFy6BmTSHPL2V_Lnm4d-12" value="" style="endArrow=none;dashed=1;html=1;rounded=0;" edge="1" parent="1" target="EAFy6BmTSHPL2V_Lnm4d-13">
          <mxGeometry width="50" height="50" relative="1" as="geometry">
            <mxPoint x="652.99" y="419" as="sourcePoint" />
            <mxPoint x="652.71" y="139" as="targetPoint" />
          </mxGeometry>
        </mxCell>
        <mxCell id="EAFy6BmTSHPL2V_Lnm4d-13" value="" style="html=1;points=[[0,0,0,0,5],[0,1,0,0,-5],[1,0,0,0,5],[1,1,0,0,-5]];perimeter=orthogonalPerimeter;outlineConnect=0;targetShapes=umlLifeline;portConstraint=eastwest;newEdgeStyle={&quot;curved&quot;:0,&quot;rounded&quot;:0};" vertex="1" parent="1">
          <mxGeometry x="648" y="211" width="10" height="88" as="geometry" />
        </mxCell>
        <mxCell id="EAFy6BmTSHPL2V_Lnm4d-14" value="" style="endArrow=classic;html=1;rounded=0;" edge="1" parent="1">
          <mxGeometry width="50" height="50" relative="1" as="geometry">
            <mxPoint x="60" y="169" as="sourcePoint" />
            <mxPoint x="196.5" y="169" as="targetPoint" />
          </mxGeometry>
        </mxCell>
        <mxCell id="EAFy6BmTSHPL2V_Lnm4d-15" value="getStatus()" style="edgeLabel;html=1;align=center;verticalAlign=middle;resizable=0;points=[];" vertex="1" connectable="0" parent="EAFy6BmTSHPL2V_Lnm4d-14">
          <mxGeometry x="0.1526" relative="1" as="geometry">
            <mxPoint x="-16" y="-8" as="offset" />
          </mxGeometry>
        </mxCell>
        <mxCell id="EAFy6BmTSHPL2V_Lnm4d-16" value="" style="endArrow=classic;html=1;rounded=0;" edge="1" parent="1" target="EAFy6BmTSHPL2V_Lnm4d-6">
          <mxGeometry width="50" height="50" relative="1" as="geometry">
            <mxPoint x="204" y="190" as="sourcePoint" />
            <mxPoint x="483.5" y="190" as="targetPoint" />
          </mxGeometry>
        </mxCell>
        <mxCell id="EAFy6BmTSHPL2V_Lnm4d-17" value="consultarStatusOrdem(ordem)" style="edgeLabel;html=1;align=center;verticalAlign=middle;resizable=0;points=[];" vertex="1" connectable="0" parent="EAFy6BmTSHPL2V_Lnm4d-16">
          <mxGeometry x="-0.5083" y="1" relative="1" as="geometry">
            <mxPoint x="46" y="-10" as="offset" />
          </mxGeometry>
        </mxCell>
        <mxCell id="EAFy6BmTSHPL2V_Lnm4d-18" value="" style="endArrow=classic;html=1;rounded=0;" edge="1" parent="1">
          <mxGeometry width="50" height="50" relative="1" as="geometry">
            <mxPoint x="527.9999999999998" y="211.4999999999999" as="sourcePoint" />
            <mxPoint x="647.9999999999998" y="211.4999999999999" as="targetPoint" />
          </mxGeometry>
        </mxCell>
        <mxCell id="EAFy6BmTSHPL2V_Lnm4d-19" value="consulta status&lt;div&gt;da ordem de&lt;/div&gt;&lt;div&gt;venda&lt;/div&gt;" style="edgeLabel;html=1;align=center;verticalAlign=middle;resizable=0;points=[];" vertex="1" connectable="0" parent="EAFy6BmTSHPL2V_Lnm4d-18">
          <mxGeometry x="0.1201" relative="1" as="geometry">
            <mxPoint x="-9" y="-22" as="offset" />
          </mxGeometry>
        </mxCell>
        <mxCell id="EAFy6BmTSHPL2V_Lnm4d-20" value="" style="endArrow=none;html=1;rounded=0;startArrow=open;startFill=0;endFill=0;dashed=1;" edge="1" parent="1">
          <mxGeometry width="50" height="50" relative="1" as="geometry">
            <mxPoint x="528.9999999999998" y="286.9999999999999" as="sourcePoint" />
            <mxPoint x="648.9999999999998" y="286.9999999999999" as="targetPoint" />
          </mxGeometry>
        </mxCell>
        <mxCell id="EAFy6BmTSHPL2V_Lnm4d-21" value="status atual da&amp;nbsp;&lt;div&gt;ordem de venda&lt;/div&gt;" style="edgeLabel;html=1;align=center;verticalAlign=middle;resizable=0;points=[];" vertex="1" connectable="0" parent="EAFy6BmTSHPL2V_Lnm4d-20">
          <mxGeometry x="0.1201" relative="1" as="geometry">
            <mxPoint x="-4" y="-16" as="offset" />
          </mxGeometry>
        </mxCell>
        <mxCell id="EAFy6BmTSHPL2V_Lnm4d-22" value="" style="endArrow=none;html=1;rounded=0;startArrow=classic;startFill=1;endFill=0;" edge="1" parent="1">
          <mxGeometry width="50" height="50" relative="1" as="geometry">
            <mxPoint x="381" y="288" as="sourcePoint" />
            <mxPoint x="518.5" y="288" as="targetPoint" />
          </mxGeometry>
        </mxCell>
        <mxCell id="EAFy6BmTSHPL2V_Lnm4d-23" value="adicionaNotificacao()" style="edgeLabel;html=1;align=center;verticalAlign=middle;resizable=0;points=[];" vertex="1" connectable="0" parent="EAFy6BmTSHPL2V_Lnm4d-22">
          <mxGeometry x="-0.1293" y="-2" relative="1" as="geometry">
            <mxPoint x="11" y="-10" as="offset" />
          </mxGeometry>
        </mxCell>
        <mxCell id="EAFy6BmTSHPL2V_Lnm4d-24" value="" style="endArrow=none;html=1;rounded=0;startArrow=open;startFill=0;endFill=0;dashed=1;" edge="1" parent="1">
          <mxGeometry width="50" height="50" relative="1" as="geometry">
            <mxPoint x="61" y="354" as="sourcePoint" />
            <mxPoint x="372.5" y="356" as="targetPoint" />
          </mxGeometry>
        </mxCell>
        <mxCell id="EAFy6BmTSHPL2V_Lnm4d-25" value="exibe status da&lt;div&gt;ordem de venda&lt;/div&gt;&lt;div&gt;(executada, cancelada, pendente)&lt;/div&gt;" style="edgeLabel;html=1;align=center;verticalAlign=middle;resizable=0;points=[];" vertex="1" connectable="0" parent="EAFy6BmTSHPL2V_Lnm4d-24">
          <mxGeometry x="-0.3562" y="2" relative="1" as="geometry">
            <mxPoint x="-6" y="-22" as="offset" />
          </mxGeometry>
        </mxCell>
      </root>
    </mxGraphModel>
  </diagram>
</mxfile>
